<svg xmlns="http://www.w3.org/2000/svg" x="0px" y="0px" width="100" height="100" viewBox="0 0 120 120">
<path d="M60,115c-24.538,0-44.5-19.962-44.5-44.5S35.462,26,60,26s44.5,19.962,44.5,44.5S84.538,115,60,115z M60,34 c-20.126,0-36.5,16.374-36.5,36.5S39.874,107,60,107s36.5-16.374,36.5-36.5S80.126,34,60,34z" opacity=".35"></path><rect width="13" height="3" x="70" y="92" opacity=".35"></rect><path fill="#ff1200" d="M60,111c-24.538,0-44.5-19.962-44.5-44.5S35.462,22,60,22s44.5,19.962,44.5,44.5S84.538,111,60,111 z M60,30c-20.126,0-36.5,16.374-36.5,36.5S39.874,103,60,103s36.5-16.374,36.5-36.5S80.126,30,60,30z"></path><polygon points="69,45 69,56.515 83,70.515 83,12 70,12 18,116 36,116" opacity=".35"></polygon><rect width="25" height="12" x="47" y="70" opacity=".35"></rect><polygon fill="#ff1200" points="69,36 69,53.515 83,67.515 83,8 70,8 18,112 34,112"></polygon><polygon fill="#ff1200" points="70,92 83,92 83,80"></polygon><polygon points="69,90 69,63 83,77" opacity=".35"></polygon><rect width="25" height="12" x="47" y="67" fill="#ff1200"></rect><polygon fill="#ff1200" points="69,87 69,60 83,74"></polygon>
</svg>